<?xml version="1.0" encoding="UTF-8"?>
<svg id="Layer_1" xmlns="http://www.w3.org/2000/svg" version="1.1" viewBox="0 0 1029.96 197.5">
  <!-- Generator: Adobe Illustrator 30.3.0, SVG Export Plug-In . SVG Version: 2.1.3 Build 182)  -->
  <defs>
    <style>
      .st0 {
        fill: #010101;
      }
    </style>
  </defs>
  <path class="st0" d="M30.88,60.89h14.04v88.78h-14.04V60.89Z"/>
  <path class="st0" d="M80.74,117.65h-.12v32.01h-14.04V60.89h20.47c21.18,0,35.22,9.64,35.22,27.61,0,14.87-10.95,24.4-24.99,27.73l27.61,33.44h-17.26l-26.89-32.01ZM80.62,73.98v31.06h7.62c11.66,0,19.87-6.78,19.87-16.54,0-7.97-5.71-14.52-19.87-14.52h-7.62Z"/>
  <path class="st0" d="M140.47,60.89h14.04v88.78h-14.04V60.89Z"/>
  <path class="st0" d="M190.22,84.45v65.21h-14.04V60.89h14.04l46.17,65.09V60.89h14.04v88.78h-13.69l-46.53-65.21Z"/>
  <path class="st0" d="M326.59,132.88h-41.77l-6.43,16.78h-14.52l35.11-88.78h13.92l34.99,88.78h-14.88l-6.43-16.78ZM322.07,121.22l-16.3-42.6-16.42,42.6h32.73Z"/>
  <path class="st0" d="M401.68,149.66h-27.25V60.89h24.75c20.47,0,27.37,10.12,27.37,22.49,0,7.73-3.93,14.99-10.95,19.52,9.04,4.52,14.28,12.97,14.28,22.85,0,12.02-8.21,23.92-28.2,23.92ZM388.47,72.79v25.59h7.85c10.83,0,17.26-5.71,17.26-13.45,0-6.78-3.81-12.14-16.78-12.14h-8.33ZM388.47,109.68v28.08h10.12c13.21,0,17.02-6.54,17.14-13.57,0-8.93-6.54-14.52-17.61-14.52h-9.64Z"/>
  <path class="st0" d="M533.53,105.15c0,26.18-21.3,47.36-48.43,47.36s-48.55-21.18-48.55-47.36,21.3-47.12,48.55-47.12,48.43,21.06,48.43,47.12ZM450.71,105.15c0,18.68,15.11,34.51,34.39,34.51s34.27-15.71,34.27-34.51-15.11-34.27-34.27-34.27-34.39,15.83-34.39,34.27Z"/>
  <path class="st0" d="M588.39,152.52c-27.25,0-48.55-21.18-48.55-47.36s21.3-47.12,48.55-47.12c13.09,0,25.23,5,33.56,12.85l-9.64,9.52c-6.78-6.31-14.88-9.52-23.92-9.52-19.28,0-34.39,15.83-34.39,34.15s15.11,34.63,34.39,34.63c15.71,0,28.32-11.9,30.46-26.78l-27.97.12,5.47-12.5h37.01v5.12c0,25.7-19.75,46.89-44.98,46.89Z"/>
  <path class="st0" d="M736.42,105.15c0,26.18-21.3,47.36-48.43,47.36s-48.55-21.18-48.55-47.36,21.3-47.12,48.55-47.12,48.43,21.06,48.43,47.12ZM653.6,105.15c0,18.68,15.11,34.51,34.39,34.51s34.27-15.71,34.27-34.51-15.11-34.27-34.27-34.27-34.39,15.83-34.39,34.27Z"/>
  <path class="st0" d="M784.98,149.66h-15.11l-33.68-88.78h14.99l26.54,71.16,26.54-71.16h14.52l-33.8,88.78Z"/>
  <path class="st0" d="M825.2,60.89h14.04v88.78h-14.04V60.89Z"/>
  <path class="st0" d="M917.18,76.47c-5.71-3.69-12.38-5.59-19.52-5.59-19.64,0-35.11,16.07-35.11,34.15s15.47,34.63,35.11,34.63c7.14,0,13.8-2.02,19.52-5.59v13.92c-6.07,2.98-12.97,4.52-20.23,4.52-27.49,0-48.55-21.18-48.55-47.36s21.06-47.12,48.55-47.12c7.26,0,14.04,1.55,20.23,4.52v13.92Z"/>
  <path class="st0" d="M927.42,60.89h14.04v35.23h38.68v-35.23h14.04v88.78h-14.04v-41.06h-38.68v41.06h-14.04V60.89Z"/>
</svg>